<svg width="19" height="18" viewBox="0 0 19 18" fill="none" xmlns="http://www.w3.org/2000/svg">
<path d="M10.1384 1.39229L12.2112 5.53039C12.3128 5.73837 12.5129 5.88377 12.7456 5.91883L17.3851 6.58473C17.5734 6.61023 17.7435 6.70833 17.8575 6.8572C17.9715 7.00606 18.0201 7.19337 17.9924 7.37747C17.9691 7.5288 17.895 7.66825 17.7819 7.77384L14.4217 11.0082C14.2518 11.1676 14.1757 11.4002 14.2192 11.6266L15.0289 16.1848C15.0875 16.5604 14.8283 16.9128 14.446 16.9775C14.2883 17.0017 14.1268 16.9768 13.9844 16.9062L9.84694 14.7579C9.64026 14.6464 9.38968 14.6464 9.183 14.7579L5.02121 16.922C4.67204 17.0975 4.2437 16.9671 4.05768 16.6287C3.98516 16.4923 3.9596 16.3366 3.98481 16.1848L4.7945 11.6266C4.83366 11.4005 4.75817 11.1699 4.59208 11.0082L1.20759 7.77384C0.930804 7.49911 0.930804 7.05764 1.20759 6.78292C1.32055 6.68052 1.46098 6.61177 1.61243 6.58473L6.25193 5.91883C6.48358 5.88121 6.68252 5.7366 6.78633 5.53039L8.85912 1.39229C8.94102 1.22451 9.08866 1.09621 9.26855 1.03651C9.44843 0.976807 9.64532 0.990758 9.81455 1.0752C9.95418 1.14453 10.0676 1.25559 10.1384 1.39229Z" fill="#F6F6F6" stroke="#E09B00" stroke-width="0.4" stroke-linecap="round" stroke-linejoin="round"/>
</svg>
